<svg width="64" height="65" viewBox="0 0 64 65" fill="none" xmlns="http://www.w3.org/2000/svg">
<rect width="64" height="64" transform="translate(0 0.456543)" fill="white"/>
<path d="M17.9308 44.8781H19.5114C20.5022 44.8781 21.2788 44.1147 21.2788 43.1238V40.8741C24.2525 41.0615 28.5514 41.1952 31.9931 41.1952C35.4485 41.1952 39.7474 41.0615 42.7211 40.8741V43.1238C42.7211 44.1147 43.4845 44.8781 44.4885 44.8781H46.0691C47.0737 44.8781 47.8502 44.1147 47.8502 43.1238V35.3964C47.8502 33.1461 47.3948 31.8735 46.1497 30.2667L45.0245 28.8067C44.5291 26.3964 43.6451 23.865 43.1765 22.8741C42.4662 21.3604 41.0737 20.4627 39.2925 20.2221C38.3954 20.1147 35.4622 20.0347 31.9931 20.0347C28.5382 20.0347 25.6045 20.1284 24.7074 20.2221C22.9262 20.4364 21.5337 21.3604 20.8239 22.8735C20.3554 23.865 19.4708 26.3964 18.9754 28.8067L17.8502 30.2667C16.6045 31.8741 16.1497 33.1461 16.1497 35.3964V43.1238C16.1497 44.1147 16.9268 44.8781 17.9308 44.8781ZM21.6811 27.6952C22.0022 26.2221 22.6451 24.3067 23.0868 23.5295C23.4485 22.901 23.8371 22.6324 24.5605 22.5392C25.5777 22.3918 27.8548 22.3112 31.9931 22.3112C36.1451 22.3112 38.4217 22.365 39.4399 22.5392C40.1497 22.6461 40.5377 22.9004 40.9131 23.5301C41.3685 24.2935 41.9708 26.2215 42.3188 27.6952C42.4399 28.1907 42.2388 28.3781 41.7165 28.3381C39.4937 28.2044 36.8417 28.057 31.9931 28.057C27.1588 28.057 24.5068 28.2044 22.2834 28.3381C21.7611 28.3781 21.5737 28.1907 21.6805 27.6952M22.2291 37.7267C20.9571 37.7267 20.0062 36.7621 20.0062 35.5032C20.0062 34.2307 20.9571 33.2804 22.2291 33.2804C23.5017 33.2804 24.4525 34.2307 24.4525 35.5032C24.4525 36.7621 23.5017 37.7261 22.2297 37.7261M41.7702 37.7261C40.4977 37.7261 39.5474 36.7615 39.5474 35.5027C39.5474 34.2301 40.4977 33.2798 41.7702 33.2798C43.0291 33.2798 43.9931 34.2301 43.9931 35.5027C43.9931 36.7615 43.0291 37.7261 41.7702 37.7261ZM28.4445 37.1095C27.5068 37.1095 26.8502 36.4398 26.8502 35.5021C26.8502 34.5512 27.5068 33.8952 28.4445 33.8952H35.5559C36.4931 33.8952 37.1497 34.5512 37.1497 35.5021C37.1497 36.4392 36.4931 37.1095 35.5554 37.1095H28.4445Z" fill="black"/>
</svg>
