<svg width="32" height="25" viewBox="0 0 32 25" fill="none" xmlns="http://www.w3.org/2000/svg">
<path d="M1.9308 24.8781H3.51137C4.50223 24.8781 5.2788 24.1147 5.2788 23.1238V20.8741C8.25252 21.0615 12.5514 21.1952 15.9931 21.1952C19.4485 21.1952 23.7474 21.0615 26.7211 20.8741V23.1238C26.7211 24.1147 27.4845 24.8781 28.4885 24.8781H30.0691C31.0737 24.8781 31.8502 24.1147 31.8502 23.1238V15.3964C31.8502 13.1461 31.3948 11.8735 30.1497 10.2667L29.0245 8.80667C28.5291 6.39638 27.6451 3.86495 27.1765 2.8741C26.4662 1.36038 25.0737 0.462668 23.2925 0.222097C22.3954 0.114668 19.4622 0.034668 15.9931 0.034668C12.5382 0.034668 9.60452 0.128382 8.70737 0.222097C6.92623 0.436382 5.53366 1.36038 4.82394 2.87352C4.35537 3.86495 3.4708 6.39638 2.97537 8.80667L1.85023 10.2667C0.604515 11.8741 0.149658 13.1461 0.149658 15.3964V23.1238C0.149658 24.1147 0.926801 24.8781 1.9308 24.8781ZM5.68109 7.69524C6.00223 6.2221 6.64509 4.30667 7.0868 3.52953C7.44852 2.90095 7.83709 2.63238 8.56052 2.53924C9.57766 2.39181 11.8548 2.31124 15.9931 2.31124C20.1451 2.31124 22.4217 2.36495 23.4399 2.53924C24.1497 2.6461 24.5377 2.90038 24.9131 3.5301C25.3685 4.29353 25.9708 6.22152 26.3188 7.69524C26.4399 8.19067 26.2388 8.3781 25.7165 8.3381C23.4937 8.20438 20.8417 8.05695 15.9931 8.05695C11.1588 8.05695 8.5068 8.20438 6.28337 8.3381C5.76109 8.3781 5.57366 8.19067 5.68052 7.69524M6.22909 17.7267C4.95709 17.7267 4.00623 16.7621 4.00623 15.5032C4.00623 14.2307 4.95709 13.2804 6.22909 13.2804C7.50166 13.2804 8.45252 14.2307 8.45252 15.5032C8.45252 16.7621 7.50166 17.7261 6.22966 17.7261M25.7702 17.7261C24.4977 17.7261 23.5474 16.7615 23.5474 15.5027C23.5474 14.2301 24.4977 13.2798 25.7702 13.2798C27.0291 13.2798 27.9931 14.2301 27.9931 15.5027C27.9931 16.7615 27.0291 17.7261 25.7702 17.7261ZM12.4445 17.1095C11.5068 17.1095 10.8502 16.4398 10.8502 15.5021C10.8502 14.5512 11.5068 13.8952 12.4445 13.8952H19.5559C20.4931 13.8952 21.1497 14.5512 21.1497 15.5021C21.1497 16.4392 20.4931 17.1095 19.5554 17.1095H12.4445Z" fill="black"/>
</svg>
