<svg width="33" height="33" viewBox="0 0 33 33" fill="none" xmlns="http://www.w3.org/2000/svg">
<path d="M29.6667 12.4564V9.78971H23V3.12305H20.3333V9.78971H17.6667V3.12305H15V9.78971H12.3333V3.12305H9.66667V9.78971H3V12.4564H9.66667V15.123H3V17.7897H9.66667V20.4564H3V23.123H9.66667V29.7897H12.3333V23.123H15V29.7897H17.6667V23.123H20.3333V29.7897H23V23.123H29.6667V20.4564H23V17.7897H29.6667V15.123H23V12.4564H29.6667Z" fill="#CB9083"/>
<path d="M5.6665 8.45671V24.4567C5.6665 25.9234 6.8665 27.1234 8.33317 27.1234H24.3332C25.7998 27.1234 26.9998 25.9234 26.9998 24.4567V8.45671C26.9998 6.99004 25.7998 5.79004 24.3332 5.79004H8.33317C6.8665 5.79004 5.6665 6.99004 5.6665 8.45671Z" fill="#49524A"/>
<path d="M20.9999 20.1234H11.6666C11.4855 20.1234 11.3333 19.9711 11.3333 19.79V13.1234C11.3333 12.9423 11.4855 12.79 11.6666 12.79H20.9999C21.181 12.79 21.3333 12.9423 21.3333 13.1234V19.79C21.3333 19.9711 21.181 20.1234 20.9999 20.1234Z" fill="#2B2D2F" stroke="#49524A" stroke-width="2"/>
</svg>
