<svg width="32" height="29" viewBox="0 0 32 29" fill="none" xmlns="http://www.w3.org/2000/svg">
<path d="M16.0002 11.7899C16.613 11.7899 17.2198 11.6692 17.786 11.4346C18.3522 11.2001 18.8667 10.8564 19.3 10.423C19.7333 9.9897 20.0771 9.47525 20.3116 8.90907C20.5461 8.34288 20.6668 7.73604 20.6668 7.12321C20.6668 6.51037 20.5461 5.90354 20.3116 5.33735C20.0771 4.77117 19.7333 4.25672 19.3 3.82338C18.8667 3.39004 18.3522 3.04629 17.786 2.81177C17.2198 2.57725 16.613 2.45654 16.0002 2.45654C14.7625 2.45654 13.5755 2.94821 12.7003 3.82338C11.8252 4.69855 11.3335 5.88553 11.3335 7.12321C11.3335 8.36089 11.8252 9.54787 12.7003 10.423C13.5755 11.2982 14.7625 11.7899 16.0002 11.7899Z" fill="black" stroke="black" stroke-width="4" stroke-linecap="round" stroke-linejoin="round"/>
<path d="M8 3.29297C7.38227 3.72255 6.87772 4.29529 6.52944 4.96224C6.18116 5.6292 5.9995 6.37055 6 7.12297C5.99957 7.92819 6.20762 8.71981 6.6039 9.42077C7.00017 10.1217 7.57118 10.7082 8.26133 11.123M24 3.29297C24.6177 3.72255 25.1223 4.29529 25.4706 4.96224C25.8188 5.6292 26.0005 6.37055 26 7.12297C26.0006 7.8755 25.819 8.61698 25.4707 9.28407C25.1224 9.95115 24.6178 10.524 24 10.9536" stroke="black" stroke-width="4" stroke-linecap="round" stroke-linejoin="round"/>
<path d="M8 25.123V26.4564H24V25.123C24 22.6384 24 21.3957 23.594 20.415C23.0525 19.1083 22.0142 18.0702 20.7073 17.529C19.728 17.123 18.4853 17.123 16 17.123C13.5147 17.123 12.2727 17.123 11.2927 17.529C10.6455 17.7971 10.0575 18.19 9.56221 18.6853C9.06691 19.1806 8.67403 19.7686 8.406 20.4157C8 21.3957 8 22.6384 8 25.123Z" fill="black" stroke="black" stroke-width="4" stroke-linecap="round" stroke-linejoin="round"/>
<path d="M29.3334 26.4566V25.6566C29.3334 22.6699 29.3334 21.1766 28.7521 20.0353C28.2408 19.0318 27.4249 18.2159 26.4214 17.7046M2.66675 26.4566V25.6566C2.66675 22.6699 2.66675 21.1766 3.24808 20.0353C3.7594 19.0318 4.57526 18.2159 5.57875 17.7046" stroke="black" stroke-width="4" stroke-linecap="round" stroke-linejoin="round"/>
</svg>
