<svg width="25" height="28" viewBox="0 0 25 28" fill="none" xmlns="http://www.w3.org/2000/svg">
<path d="M3.5999 0.656738C2.75121 0.656738 1.93728 0.99388 1.33716 1.594C0.737044 2.19411 0.399902 3.00805 0.399902 3.85674V23.0567C0.399902 23.9054 0.737044 24.7194 1.33716 25.3195C1.93728 25.9196 2.75121 26.2567 3.5999 26.2567H10.4111C10.0036 25.7632 9.65111 25.2267 9.3599 24.6567H3.5999C3.17556 24.6567 2.76859 24.4882 2.46853 24.1881C2.16847 23.8881 1.9999 23.4811 1.9999 23.0567H8.7311C8.30319 21.5495 8.28546 19.9553 8.67976 18.4388C9.07407 16.9224 9.86609 15.5388 10.974 14.4309C12.0819 13.3229 13.4656 12.5309 14.982 12.1366C16.4984 11.7423 18.0926 11.76 19.5999 12.1879V3.85674C19.5999 3.00805 19.2628 2.19411 18.6626 1.594C18.0625 0.99388 17.2486 0.656738 16.3999 0.656738H3.5999ZM4.7999 4.65674H15.1999C15.5182 4.65674 15.8234 4.78317 16.0484 5.00821C16.2735 5.23325 16.3999 5.53848 16.3999 5.85674C16.3999 6.175 16.2735 6.48022 16.0484 6.70527C15.8234 6.93031 15.5182 7.05674 15.1999 7.05674H4.7999C4.48164 7.05674 4.17642 6.93031 3.95137 6.70527C3.72633 6.48022 3.5999 6.175 3.5999 5.85674C3.5999 5.53848 3.72633 5.23325 3.95137 5.00821C4.17642 4.78317 4.48164 4.65674 4.7999 4.65674ZM24.3999 20.6567C24.3999 22.5663 23.6413 24.3976 22.2911 25.7479C20.9408 27.0982 19.1095 27.8567 17.1999 27.8567C15.2903 27.8567 13.459 27.0982 12.1087 25.7479C10.7585 24.3976 9.9999 22.5663 9.9999 20.6567C9.9999 18.7472 10.7585 16.9158 12.1087 15.5656C13.459 14.2153 15.2903 13.4567 17.1999 13.4567C19.1095 13.4567 20.9408 14.2153 22.2911 15.5656C23.6413 16.9158 24.3999 18.7472 24.3999 20.6567ZM16.4319 17.5111C16.3281 17.4399 16.2076 17.3969 16.0822 17.3866C15.9567 17.3762 15.8308 17.3987 15.7167 17.4519C15.6236 17.4929 15.5394 17.5516 15.4687 17.6247C15.3197 17.7775 15.2364 17.9825 15.2367 18.1959V23.1159C15.2357 23.222 15.2557 23.3272 15.2955 23.4255C15.3353 23.5238 15.3942 23.6133 15.4687 23.6887C15.5417 23.7614 15.6267 23.8209 15.7199 23.8647C15.8822 23.9391 16.0664 23.9505 16.2367 23.8967C16.3105 23.8724 16.3805 23.838 16.4447 23.7943L20.1183 21.2871C20.2301 21.2135 20.3201 21.1113 20.3791 20.9911C20.4399 20.8701 20.4711 20.7364 20.4703 20.601C20.4695 20.4655 20.4366 20.3322 20.3743 20.2119C20.3117 20.0935 20.2197 19.9932 20.1071 19.9207L16.4319 17.5111Z" fill="black"/>
</svg>
