<svg width="28" height="26" viewBox="0 0 28 26" fill="none" xmlns="http://www.w3.org/2000/svg">
<path d="M3.33341 25.4564C2.60008 25.4564 1.97253 25.1955 1.45075 24.6737C0.92897 24.1519 0.667637 23.5239 0.666748 22.7897V8.12305C0.666748 7.38971 0.928081 6.76216 1.45075 6.24038C1.97341 5.7186 2.60097 5.45727 3.33341 5.45638H8.66675V2.78971C8.66675 2.05638 8.92808 1.42882 9.45075 0.907047C9.97341 0.385269 10.601 0.123936 11.3334 0.123047H16.6667C17.4001 0.123047 18.0281 0.38438 18.5507 0.907047C19.0734 1.42971 19.3343 2.05727 19.3334 2.78971V5.45638H24.6667C25.4001 5.45638 26.0281 5.71771 26.5507 6.24038C27.0734 6.76305 27.3343 7.3906 27.3334 8.12305V22.7897C27.3334 23.5231 27.0725 24.1511 26.5507 24.6737C26.029 25.1964 25.401 25.4573 24.6667 25.4564H3.33341ZM11.3334 5.45638H16.6667V2.78971H11.3334V5.45638Z" fill="black"/>
</svg>
